<svg xmlns="http://www.w3.org/2000/svg" viewBox="100 110 710 200" width="710" height="200">
  <title>BARA</title>
  <!-- Letter B -->
  <path d="M 110,120 L 110,300 L 192,300 Q 215,300 215,278 L 215,225 Q 215,210 198,210 Q 214,210 214,195 L 214,155 Q 214,120 192,120 Z M 132,146 L 186,146 Q 192,146 192,156 L 192,194 Q 192,200 186,200 L 132,200 Z M 132,220 L 188,220 Q 194,220 194,230 L 194,268 Q 194,276 188,276 L 132,276 Z" fill="#F5F5F0" fill-rule="evenodd"/>
  <!-- Letter A (flat-topped) -->
  <path d="M 265,300 L 312,120 L 316,120 L 386,120 L 390,120 L 437,300 L 410,300 L 396,250 L 311,250 L 297,300 Z M 318,224 L 388,224 L 368,154 L 352,146 L 336,154 Z" fill="#F5F5F0" fill-rule="evenodd"/>
  <!-- Letter R -->
  <path d="M 475,120 L 475,300 L 497,300 L 497,222 L 558,300 L 592,300 L 525,216 Q 586,213 586,168 L 586,155 Q 586,120 558,120 Z M 497,146 L 550,146 Q 560,146 560,160 L 560,192 Q 560,200 550,200 L 497,200 Z" fill="#F5F5F0" fill-rule="evenodd"/>
  <!-- Letter A (flat-topped, second) -->
  <path d="M 628,300 L 675,120 L 679,120 L 749,120 L 753,120 L 800,300 L 773,300 L 759,250 L 674,250 L 660,300 Z M 681,224 L 751,224 L 731,154 L 715,146 L 699,154 Z" fill="#F5F5F0" fill-rule="evenodd"/>
</svg>
